<svg width="22" height="27" viewBox="0 0 22 27" fill="none" xmlns="http://www.w3.org/2000/svg">
<path d="M7.31272 26.7675C3.32894 26.7445 0.0336304 18.6123 0.0336304 14.4707C0.0336304 7.70548 5.1087 6.2244 7.0646 6.2244C7.94604 6.2244 8.88723 6.57054 9.71738 6.87685C10.2979 7.09052 10.8983 7.31108 11.2322 7.31108C11.4321 7.31108 11.903 7.12345 12.3189 6.95882C13.2057 6.60578 14.3092 6.16699 15.5943 6.16699C15.5966 6.16699 15.5997 6.16699 15.6019 6.16699C16.5614 6.16699 19.4708 6.37758 21.22 9.00433L21.6297 9.62003L21.04 10.065C20.1976 10.7006 18.6606 11.8601 18.6606 14.1568C18.6606 16.8769 20.4013 17.9231 21.2376 18.4262C21.6067 18.6483 21.9888 18.8773 21.9888 19.3781C21.9888 19.7051 19.3789 26.7269 15.5889 26.7269C14.6615 26.7269 14.006 26.4481 13.4277 26.2023C12.8427 25.9534 12.338 25.739 11.504 25.739C11.0813 25.739 10.5467 25.9389 9.98077 26.151C9.20739 26.4397 8.33202 26.7675 7.33875 26.7675H7.31272Z" fill="#868889"/>
<path d="M15.9958 0C16.0945 3.55901 13.5492 6.02808 11.007 5.87323C10.588 3.03302 13.5489 0 15.9958 0Z" fill="#868889"/>
</svg>
