<svg width="31" height="21" viewBox="0 0 31 21" fill="none" xmlns="http://www.w3.org/2000/svg">
<path d="M27.7704 0H3.23039C1.45062 0 0.00146484 1.44915 0.00146484 3.22899V17.4364C0.00146484 19.2162 1.45062 20.6653 3.23039 20.6653H27.7704C29.5501 20.6653 30.9993 19.2162 30.9993 17.4364V3.22899C30.9994 1.44915 29.5502 0 27.7704 0ZM29.7078 17.4363C29.7078 18.5045 28.8386 19.3737 27.7704 19.3737H3.23039C2.16224 19.3737 1.29302 18.5045 1.29302 17.4363V3.22899C1.29302 2.16083 2.16224 1.29162 3.23039 1.29162H27.7704C28.8385 1.29162 29.7077 2.16083 29.7077 3.22899V17.4363H29.7078Z" fill="#868889"/>
<path d="M30.3542 3.875H0.647885C0.291409 3.875 0.0020752 4.16433 0.0020752 4.52081V8.39555C0.0020752 8.75202 0.291409 9.04136 0.647885 9.04136H30.3542C30.7107 9.04136 31 8.75202 31 8.39555V4.52081C31 4.16433 30.7106 3.875 30.3542 3.875ZM29.7084 7.74974H1.29363V5.16656H29.7084V7.74974H29.7084Z" fill="#868889"/>
<path d="M12.2721 12.916H4.52264C4.16616 12.916 3.87683 13.2054 3.87683 13.5618C3.87683 13.9183 4.16616 14.2076 4.52264 14.2076H12.2721C12.6286 14.2076 12.9179 13.9182 12.9179 13.5618C12.9179 13.2053 12.6286 12.916 12.2721 12.916Z" fill="#868889"/>
<path d="M12.2721 15.499H4.52264C4.16616 15.499 3.87683 15.7884 3.87683 16.1448C3.87683 16.5013 4.16616 16.7906 4.52264 16.7906H12.2721C12.6286 16.7906 12.9179 16.5013 12.9179 16.1448C12.9179 15.7884 12.6286 15.499 12.2721 15.499Z" fill="#868889"/>
<path d="M25.1877 11.6245H23.8961C22.828 11.6245 21.9587 12.4937 21.9587 13.5619V14.8534C21.9587 15.9216 22.828 16.7908 23.8961 16.7908H25.1877C26.2558 16.7908 27.125 15.9216 27.125 14.8534V13.5619C27.125 12.4938 26.2558 11.6245 25.1877 11.6245ZM25.8335 14.8535C25.8335 15.21 25.5441 15.4993 25.1877 15.4993H23.8961C23.5396 15.4993 23.2503 15.21 23.2503 14.8535V13.5619C23.2503 13.2055 23.5396 12.9161 23.8961 12.9161H25.1877C25.5441 12.9161 25.8335 13.2055 25.8335 13.5619V14.8535Z" fill="#868889"/>
</svg>
