<svg width="22" height="23" viewBox="0 0 22 23" fill="none" xmlns="http://www.w3.org/2000/svg">
<path d="M20.6029 5.19014C20.3939 4.93179 20.1508 4.69589 19.8815 4.48535C19.9175 5.15337 19.8556 5.86509 19.6947 6.61842C19.2553 8.67658 18.2047 10.4255 16.6565 11.6758C15.1096 12.9252 13.1779 13.5857 11.0704 13.5857H7.9972L7.00242 18.2462C6.80706 19.1608 5.98677 19.8245 5.05173 19.8245H3.66638L3.41694 20.9695C3.35287 21.2644 3.42559 21.5725 3.61489 21.8075C3.80409 22.0424 4.08975 22.1791 4.39155 22.1791H7.77816C8.24874 22.1791 8.6554 21.8502 8.75353 21.39L9.91673 15.9402H13.7968C15.6737 15.9402 17.3886 15.3564 18.7564 14.2518C20.1248 13.1468 21.0547 11.5941 21.4458 9.76191C21.8418 7.9093 21.5582 6.37112 20.6029 5.19014Z" fill="#868889"/>
<path d="M6.02727 18.0383L7.19047 12.5885H11.0706C12.9474 12.5885 14.6624 12.0047 16.0301 10.9001C17.3984 9.7951 18.3284 8.24235 18.7196 6.41021C19.1154 4.55755 18.832 3.01942 17.8765 1.83845C16.9595 0.704437 15.3918 0 13.7857 0H5.33195C4.86295 0 4.45731 0.326805 4.35744 0.785005L0.690674 17.6179C0.626504 17.9128 0.699229 18.2208 0.888631 18.4559C1.07773 18.6908 1.36328 18.8274 1.66518 18.8274H5.0519C5.52247 18.8274 5.92888 18.4985 6.02727 18.0383ZM9.13098 3.83442H11.7909C12.4167 3.83442 12.9762 4.09665 13.3261 4.55399C13.6978 5.03979 13.8064 5.71153 13.6242 6.39697C13.6218 6.40568 13.6197 6.41439 13.6175 6.42325C13.2829 7.83549 11.8915 8.98447 10.5161 8.98447H7.96717L9.13098 3.83442Z" fill="#868889"/>
</svg>
