<svg width="380" height="189" viewBox="0 0 380 189" fill="none" xmlns="http://www.w3.org/2000/svg">
<path d="M0 10C0 4.47715 4.47715 0 10 0H370C375.523 0 380 4.47715 380 10V179C380 184.523 375.523 189 370 189H10C4.47716 189 0 184.523 0 179V10Z" fill="#6CC51D"/>
<path fill-rule="evenodd" clip-rule="evenodd" d="M335 30.0366C332.043 39.9924 322.865 47.25 312 47.25C298.745 47.25 288 36.4477 288 23.1223C288 12.2 295.219 2.97276 305.122 0H10C4.47715 0 0 4.47715 0 10V179C0 184.523 4.47716 189 10 189H361.953C359.448 184.982 358 180.23 358 175.138C358 162.07 367.54 151.242 380 149.307V104.046C375.588 107.513 370.034 109.58 364 109.58C349.641 109.58 338 97.8774 338 83.4416C338 71.3202 346.207 61.1259 357.34 58.1687C344.783 56.8407 335 46.2171 335 33.3086V30.0366ZM335 16.208C332.694 8.44261 326.602 2.31873 318.878 0H370C370.011 0 370.022 1.73338e-05 370.033 5.19753e-05H335V16.208ZM380 58.3086H371.166C374.416 59.2433 377.405 60.798 380 62.8372V58.3086Z" fill="url(#paint0_linear_146_984)"/>
<path d="M354 145L361 152L354 159L347 152L354 145Z" fill="#F7CA57"/>
<path d="M328 50L338 60L328 70L318 60L328 50Z" fill="#EC6F5A"/>
<path d="M28.092 74.754L31.98 81H29.676L26.85 76.464L24.204 81H21.918L25.806 74.754L21.9 68.49H24.204L27.048 73.062L29.712 68.49H31.998L28.092 74.754ZM40.5148 74.754L44.4028 81H42.0988L39.2728 76.464L36.6268 81H34.3408L38.2288 74.754L34.3228 68.49H36.6268L39.4708 73.062L42.1348 68.49H44.4208L40.5148 74.754ZM52.9376 74.754L56.8256 81H54.5216L51.6956 76.464L49.0496 81H46.7636L50.6516 74.754L46.7456 68.49H49.0496L51.8936 73.062L54.5576 68.49H56.8436L52.9376 74.754ZM65.3604 74.754L69.2484 81H66.9444L64.1184 76.464L61.4724 81H59.1864L63.0744 74.754L59.1684 68.49H61.4724L64.3164 73.062L66.9804 68.49H69.2664L65.3604 74.754Z" fill="white"/>
<path d="M21.37 150.51C21.37 149.83 21.5267 149.22 21.84 148.68C22.16 148.14 22.59 147.72 23.13 147.42C23.6767 147.113 24.2733 146.96 24.92 146.96C25.66 146.96 26.3167 147.143 26.89 147.51C27.47 147.87 27.89 148.383 28.15 149.05H26.78C26.6 148.683 26.35 148.41 26.03 148.23C25.71 148.05 25.34 147.96 24.92 147.96C24.46 147.96 24.05 148.063 23.69 148.27C23.33 148.477 23.0467 148.773 22.84 149.16C22.64 149.547 22.54 149.997 22.54 150.51C22.54 151.023 22.64 151.473 22.84 151.86C23.0467 152.247 23.33 152.547 23.69 152.76C24.05 152.967 24.46 153.07 24.92 153.07C25.34 153.07 25.71 152.98 26.03 152.8C26.35 152.62 26.6 152.347 26.78 151.98H28.15C27.89 152.647 27.47 153.16 26.89 153.52C26.3167 153.88 25.66 154.06 24.92 154.06C24.2667 154.06 23.67 153.91 23.13 153.61C22.59 153.303 22.16 152.88 21.84 152.34C21.5267 151.8 21.37 151.19 21.37 150.51ZM33.9744 152.58H31.0644L30.5644 154H29.3744L31.8644 147.04H33.1844L35.6744 154H34.4744L33.9744 152.58ZM33.6544 151.65L32.5244 148.42L31.3844 151.65H33.6544ZM40.667 154L39.067 151.22H38.197V154H37.057V147.05H39.457C39.9904 147.05 40.4404 147.143 40.807 147.33C41.1804 147.517 41.457 147.767 41.637 148.08C41.8237 148.393 41.917 148.743 41.917 149.13C41.917 149.583 41.7837 149.997 41.517 150.37C41.257 150.737 40.8537 150.987 40.307 151.12L42.027 154H40.667ZM38.197 150.31H39.457C39.8837 150.31 40.2037 150.203 40.417 149.99C40.637 149.777 40.747 149.49 40.747 149.13C40.747 148.77 40.6404 148.49 40.427 148.29C40.2137 148.083 39.8904 147.98 39.457 147.98H38.197V150.31ZM45.9454 147.05C46.6854 147.05 47.3321 147.193 47.8854 147.48C48.4454 147.76 48.8754 148.167 49.1754 148.7C49.4821 149.227 49.6354 149.843 49.6354 150.55C49.6354 151.257 49.4821 151.87 49.1754 152.39C48.8754 152.91 48.4454 153.31 47.8854 153.59C47.3321 153.863 46.6854 154 45.9454 154H43.6754V147.05H45.9454ZM45.9454 153.07C46.7587 153.07 47.3821 152.85 47.8154 152.41C48.2487 151.97 48.4654 151.35 48.4654 150.55C48.4654 149.743 48.2487 149.113 47.8154 148.66C47.3821 148.207 46.7587 147.98 45.9454 147.98H44.8154V153.07H45.9454ZM59.5129 147.05V154H58.3729V150.96H55.1029V154H53.9629V147.05H55.1029V150.03H58.3729V147.05H59.5129ZM64.4837 154.07C63.837 154.07 63.2403 153.92 62.6937 153.62C62.1537 153.313 61.7237 152.89 61.4037 152.35C61.0903 151.803 60.9337 151.19 60.9337 150.51C60.9337 149.83 61.0903 149.22 61.4037 148.68C61.7237 148.14 62.1537 147.72 62.6937 147.42C63.2403 147.113 63.837 146.96 64.4837 146.96C65.137 146.96 65.7337 147.113 66.2737 147.42C66.8203 147.72 67.2503 148.14 67.5637 148.68C67.877 149.22 68.0337 149.83 68.0337 150.51C68.0337 151.19 67.877 151.803 67.5637 152.35C67.2503 152.89 66.8203 153.313 66.2737 153.62C65.7337 153.92 65.137 154.07 64.4837 154.07ZM64.4837 153.08C64.9437 153.08 65.3537 152.977 65.7137 152.77C66.0737 152.557 66.3537 152.257 66.5537 151.87C66.7603 151.477 66.8637 151.023 66.8637 150.51C66.8637 149.997 66.7603 149.547 66.5537 149.16C66.3537 148.773 66.0737 148.477 65.7137 148.27C65.3537 148.063 64.9437 147.96 64.4837 147.96C64.0237 147.96 63.6137 148.063 63.2537 148.27C62.8937 148.477 62.6103 148.773 62.4037 149.16C62.2037 149.547 62.1037 149.997 62.1037 150.51C62.1037 151.023 62.2037 151.477 62.4037 151.87C62.6103 152.257 62.8937 152.557 63.2537 152.77C63.6137 152.977 64.0237 153.08 64.4837 153.08ZM70.5955 153.08H72.9455V154H69.4555V147.05H70.5955V153.08ZM76.4688 147.05C77.2088 147.05 77.8555 147.193 78.4088 147.48C78.9688 147.76 79.3988 148.167 79.6988 148.7C80.0055 149.227 80.1588 149.843 80.1588 150.55C80.1588 151.257 80.0055 151.87 79.6988 152.39C79.3988 152.91 78.9688 153.31 78.4088 153.59C77.8555 153.863 77.2088 154 76.4688 154H74.1988V147.05H76.4688ZM76.4688 153.07C77.2822 153.07 77.9055 152.85 78.3388 152.41C78.7722 151.97 78.9888 151.35 78.9888 150.55C78.9888 149.743 78.7722 149.113 78.3388 148.66C77.9055 148.207 77.2822 147.98 76.4688 147.98H75.3388V153.07H76.4688ZM82.7287 147.97V150.01H85.1287V150.94H82.7287V153.07H85.4287V154H81.5887V147.04H85.4287V147.97H82.7287ZM90.7428 154L89.1428 151.22H88.2728V154H87.1328V147.05H89.5328C90.0661 147.05 90.5161 147.143 90.8828 147.33C91.2561 147.517 91.5328 147.767 91.7128 148.08C91.8995 148.393 91.9928 148.743 91.9928 149.13C91.9928 149.583 91.8595 149.997 91.5928 150.37C91.3328 150.737 90.9295 150.987 90.3828 151.12L92.1028 154H90.7428ZM88.2728 150.31H89.5328C89.9595 150.31 90.2795 150.203 90.4928 149.99C90.7128 149.777 90.8228 149.49 90.8228 149.13C90.8228 148.77 90.7161 148.49 90.5028 148.29C90.2895 148.083 89.9661 147.98 89.5328 147.98H88.2728V150.31Z" fill="white"/>
<path d="M297.89 147.97V150.01H300.29V150.94H297.89V153.07H300.59V154H296.75V147.04H300.59V147.97H297.89ZM305.484 150.53L307.644 154H306.364L304.794 151.48L303.324 154H302.054L304.214 150.53L302.044 147.05H303.324L304.904 149.59L306.384 147.05H307.654L305.484 150.53ZM314.056 149.12C314.056 149.473 313.972 149.807 313.806 150.12C313.639 150.433 313.372 150.69 313.006 150.89C312.639 151.083 312.169 151.18 311.596 151.18H310.336V154H309.196V147.05H311.596C312.129 147.05 312.579 147.143 312.946 147.33C313.319 147.51 313.596 147.757 313.776 148.07C313.962 148.383 314.056 148.733 314.056 149.12ZM311.596 150.25C312.029 150.25 312.352 150.153 312.566 149.96C312.779 149.76 312.886 149.48 312.886 149.12C312.886 148.36 312.456 147.98 311.596 147.98H310.336V150.25H311.596ZM316.583 147.05V154H315.443V147.05H316.583ZM321.99 154L320.39 151.22H319.52V154H318.38V147.05H320.78C321.313 147.05 321.763 147.143 322.13 147.33C322.503 147.517 322.78 147.767 322.96 148.08C323.146 148.393 323.24 148.743 323.24 149.13C323.24 149.583 323.106 149.997 322.84 150.37C322.58 150.737 322.176 150.987 321.63 151.12L323.35 154H321.99ZM319.52 150.31H320.78C321.206 150.31 321.526 150.203 321.74 149.99C321.96 149.777 322.07 149.49 322.07 149.13C322.07 148.77 321.963 148.49 321.75 148.29C321.536 148.083 321.213 147.98 320.78 147.98H319.52V150.31ZM326.138 147.97V150.01H328.538V150.94H326.138V153.07H328.838V154H324.998V147.04H328.838V147.97H326.138ZM332.832 154.07C332.366 154.07 331.946 153.99 331.572 153.83C331.199 153.663 330.906 153.43 330.692 153.13C330.479 152.83 330.372 152.48 330.372 152.08H331.592C331.619 152.38 331.736 152.627 331.942 152.82C332.156 153.013 332.452 153.11 332.832 153.11C333.226 153.11 333.532 153.017 333.752 152.83C333.972 152.637 334.082 152.39 334.082 152.09C334.082 151.857 334.012 151.667 333.872 151.52C333.739 151.373 333.569 151.26 333.362 151.18C333.162 151.1 332.882 151.013 332.522 150.92C332.069 150.8 331.699 150.68 331.412 150.56C331.132 150.433 330.892 150.24 330.692 149.98C330.492 149.72 330.392 149.373 330.392 148.94C330.392 148.54 330.492 148.19 330.692 147.89C330.892 147.59 331.172 147.36 331.532 147.2C331.892 147.04 332.309 146.96 332.782 146.96C333.456 146.96 334.006 147.13 334.432 147.47C334.866 147.803 335.106 148.263 335.152 148.85H333.892C333.872 148.597 333.752 148.38 333.532 148.2C333.312 148.02 333.022 147.93 332.662 147.93C332.336 147.93 332.069 148.013 331.862 148.18C331.656 148.347 331.552 148.587 331.552 148.9C331.552 149.113 331.616 149.29 331.742 149.43C331.876 149.563 332.042 149.67 332.242 149.75C332.442 149.83 332.716 149.917 333.062 150.01C333.522 150.137 333.896 150.263 334.182 150.39C334.476 150.517 334.722 150.713 334.922 150.98C335.129 151.24 335.232 151.59 335.232 152.03C335.232 152.383 335.136 152.717 334.942 153.03C334.756 153.343 334.479 153.597 334.112 153.79C333.752 153.977 333.326 154.07 332.832 154.07Z" fill="white"/>
<path d="M26.148 170L24.3 166.736H23.508V170H21.828V161.624H24.972C25.62 161.624 26.172 161.74 26.628 161.972C27.084 162.196 27.424 162.504 27.648 162.896C27.88 163.28 27.996 163.712 27.996 164.192C27.996 164.744 27.836 165.244 27.516 165.692C27.196 166.132 26.72 166.436 26.088 166.604L28.092 170H26.148ZM23.508 165.476H24.912C25.368 165.476 25.708 165.368 25.932 165.152C26.156 164.928 26.268 164.62 26.268 164.228C26.268 163.844 26.156 163.548 25.932 163.34C25.708 163.124 25.368 163.016 24.912 163.016H23.508V165.476ZM31.5315 161.624V166.808C31.5315 167.376 31.6795 167.812 31.9755 168.116C32.2715 168.412 32.6875 168.56 33.2235 168.56C33.7675 168.56 34.1875 168.412 34.4835 168.116C34.7795 167.812 34.9275 167.376 34.9275 166.808V161.624H36.6195V166.796C36.6195 167.508 36.4635 168.112 36.1515 168.608C35.8475 169.096 35.4355 169.464 34.9155 169.712C34.4035 169.96 33.8315 170.084 33.1995 170.084C32.5755 170.084 32.0075 169.96 31.4955 169.712C30.9915 169.464 30.5915 169.096 30.2955 168.608C29.9995 168.112 29.8515 167.508 29.8515 166.796V161.624H31.5315ZM41.4947 170.084C40.9107 170.084 40.3827 169.984 39.9107 169.784C39.4467 169.584 39.0787 169.296 38.8067 168.92C38.5347 168.544 38.3947 168.1 38.3867 167.588H40.1867C40.2107 167.932 40.3307 168.204 40.5467 168.404C40.7707 168.604 41.0747 168.704 41.4587 168.704C41.8507 168.704 42.1587 168.612 42.3827 168.428C42.6067 168.236 42.7187 167.988 42.7187 167.684C42.7187 167.436 42.6427 167.232 42.4907 167.072C42.3387 166.912 42.1467 166.788 41.9147 166.7C41.6907 166.604 41.3787 166.5 40.9787 166.388C40.4347 166.228 39.9907 166.072 39.6467 165.92C39.3107 165.76 39.0187 165.524 38.7707 165.212C38.5307 164.892 38.4107 164.468 38.4107 163.94C38.4107 163.444 38.5347 163.012 38.7827 162.644C39.0307 162.276 39.3787 161.996 39.8267 161.804C40.2747 161.604 40.7867 161.504 41.3627 161.504C42.2267 161.504 42.9267 161.716 43.4627 162.14C44.0067 162.556 44.3067 163.14 44.3627 163.892H42.5147C42.4987 163.604 42.3747 163.368 42.1427 163.184C41.9187 162.992 41.6187 162.896 41.2427 162.896C40.9147 162.896 40.6507 162.98 40.4507 163.148C40.2587 163.316 40.1627 163.56 40.1627 163.88C40.1627 164.104 40.2347 164.292 40.3787 164.444C40.5307 164.588 40.7147 164.708 40.9307 164.804C41.1547 164.892 41.4667 164.996 41.8667 165.116C42.4107 165.276 42.8547 165.436 43.1987 165.596C43.5427 165.756 43.8387 165.996 44.0867 166.316C44.3347 166.636 44.4587 167.056 44.4587 167.576C44.4587 168.024 44.3427 168.44 44.1107 168.824C43.8787 169.208 43.5387 169.516 43.0907 169.748C42.6427 169.972 42.1107 170.084 41.4947 170.084ZM49.1672 170.084C48.5832 170.084 48.0552 169.984 47.5832 169.784C47.1192 169.584 46.7512 169.296 46.4792 168.92C46.2072 168.544 46.0672 168.1 46.0592 167.588H47.8592C47.8832 167.932 48.0032 168.204 48.2192 168.404C48.4432 168.604 48.7472 168.704 49.1312 168.704C49.5232 168.704 49.8312 168.612 50.0552 168.428C50.2792 168.236 50.3912 167.988 50.3912 167.684C50.3912 167.436 50.3152 167.232 50.1632 167.072C50.0112 166.912 49.8192 166.788 49.5872 166.7C49.3632 166.604 49.0512 166.5 48.6512 166.388C48.1072 166.228 47.6632 166.072 47.3192 165.92C46.9832 165.76 46.6912 165.524 46.4432 165.212C46.2032 164.892 46.0832 164.468 46.0832 163.94C46.0832 163.444 46.2072 163.012 46.4552 162.644C46.7032 162.276 47.0512 161.996 47.4992 161.804C47.9472 161.604 48.4592 161.504 49.0352 161.504C49.8992 161.504 50.5992 161.716 51.1352 162.14C51.6792 162.556 51.9792 163.14 52.0352 163.892H50.1872C50.1712 163.604 50.0472 163.368 49.8152 163.184C49.5912 162.992 49.2912 162.896 48.9152 162.896C48.5872 162.896 48.3232 162.98 48.1232 163.148C47.9312 163.316 47.8352 163.56 47.8352 163.88C47.8352 164.104 47.9072 164.292 48.0512 164.444C48.2032 164.588 48.3872 164.708 48.6032 164.804C48.8272 164.892 49.1392 164.996 49.5392 165.116C50.0832 165.276 50.5272 165.436 50.8712 165.596C51.2152 165.756 51.5112 165.996 51.7592 166.316C52.0072 166.636 52.1312 167.056 52.1312 167.576C52.1312 168.024 52.0152 168.44 51.7832 168.824C51.5512 169.208 51.2112 169.516 50.7632 169.748C50.3152 169.972 49.7832 170.084 49.1672 170.084ZM55.6277 162.98V165.08H58.4477V166.412H55.6277V168.632H58.8077V170H53.9477V161.612H58.8077V162.98H55.6277ZM62.3744 168.668H65.1344V170H60.6944V161.624H62.3744V168.668ZM68.2422 168.668H71.0022V170H66.5622V161.624H68.2422V168.668ZM80.7854 168.404H77.4494L76.8974 170H75.1334L78.1454 161.612H80.1014L83.1134 170H81.3374L80.7854 168.404ZM80.3294 167.06L79.1174 163.556L77.9054 167.06H80.3294ZM86.2553 161.624V166.808C86.2553 167.376 86.4033 167.812 86.6993 168.116C86.9953 168.412 87.4113 168.56 87.9473 168.56C88.4913 168.56 88.9113 168.412 89.2073 168.116C89.5033 167.812 89.6513 167.376 89.6513 166.808V161.624H91.3433V166.796C91.3433 167.508 91.1873 168.112 90.8753 168.608C90.5713 169.096 90.1593 169.464 89.6393 169.712C89.1273 169.96 88.5553 170.084 87.9233 170.084C87.2993 170.084 86.7313 169.96 86.2193 169.712C85.7153 169.464 85.3153 169.096 85.0193 168.608C84.7233 168.112 84.5753 167.508 84.5753 166.796V161.624H86.2553ZM96.2184 170.084C95.6344 170.084 95.1064 169.984 94.6344 169.784C94.1704 169.584 93.8024 169.296 93.5304 168.92C93.2584 168.544 93.1184 168.1 93.1104 167.588H94.9104C94.9344 167.932 95.0544 168.204 95.2704 168.404C95.4944 168.604 95.7984 168.704 96.1824 168.704C96.5744 168.704 96.8824 168.612 97.1064 168.428C97.3304 168.236 97.4424 167.988 97.4424 167.684C97.4424 167.436 97.3664 167.232 97.2144 167.072C97.0624 166.912 96.8704 166.788 96.6384 166.7C96.4144 166.604 96.1024 166.5 95.7024 166.388C95.1584 166.228 94.7144 166.072 94.3704 165.92C94.0344 165.76 93.7424 165.524 93.4944 165.212C93.2544 164.892 93.1344 164.468 93.1344 163.94C93.1344 163.444 93.2584 163.012 93.5064 162.644C93.7544 162.276 94.1024 161.996 94.5504 161.804C94.9984 161.604 95.5104 161.504 96.0864 161.504C96.9504 161.504 97.6504 161.716 98.1864 162.14C98.7304 162.556 99.0304 163.14 99.0864 163.892H97.2384C97.2224 163.604 97.0984 163.368 96.8664 163.184C96.6424 162.992 96.3424 162.896 95.9664 162.896C95.6384 162.896 95.3744 162.98 95.1744 163.148C94.9824 163.316 94.8864 163.56 94.8864 163.88C94.8864 164.104 94.9584 164.292 95.1024 164.444C95.2544 164.588 95.4384 164.708 95.6544 164.804C95.8784 164.892 96.1904 164.996 96.5904 165.116C97.1344 165.276 97.5784 165.436 97.9224 165.596C98.2664 165.756 98.5624 165.996 98.8104 166.316C99.0584 166.636 99.1824 167.056 99.1824 167.576C99.1824 168.024 99.0664 168.44 98.8344 168.824C98.6024 169.208 98.2624 169.516 97.8144 169.748C97.3664 169.972 96.8344 170.084 96.2184 170.084ZM106.699 161.624V162.98H104.467V170H102.787V162.98H100.555V161.624H106.699ZM109.965 161.624V170H108.285V161.624H109.965ZM119.149 170H117.469L113.665 164.252V170H111.985V161.612H113.665L117.469 167.372V161.612H119.149V170Z" fill="white"/>
<path d="M296.035 165.512C296.035 164.128 296.283 163.044 296.779 162.26C297.283 161.476 298.115 161.084 299.275 161.084C300.435 161.084 301.263 161.476 301.759 162.26C302.263 163.044 302.515 164.128 302.515 165.512C302.515 166.904 302.263 167.996 301.759 168.788C301.263 169.58 300.435 169.976 299.275 169.976C298.115 169.976 297.283 169.58 296.779 168.788C296.283 167.996 296.035 166.904 296.035 165.512ZM300.859 165.512C300.859 164.92 300.819 164.424 300.739 164.024C300.667 163.616 300.515 163.284 300.283 163.028C300.059 162.772 299.723 162.644 299.275 162.644C298.827 162.644 298.487 162.772 298.255 163.028C298.031 163.284 297.879 163.616 297.799 164.024C297.727 164.424 297.691 164.92 297.691 165.512C297.691 166.12 297.727 166.632 297.799 167.048C297.871 167.456 298.023 167.788 298.255 168.044C298.487 168.292 298.827 168.416 299.275 168.416C299.723 168.416 300.063 168.292 300.295 168.044C300.527 167.788 300.679 167.456 300.751 167.048C300.823 166.632 300.859 166.12 300.859 165.512ZM303.948 162.8V161.252H306.84V170H305.112V162.8H303.948ZM316.771 158.636L313.531 172.172H311.887L315.127 158.636H316.771ZM322.023 168.104C322.791 167.464 323.403 166.932 323.859 166.508C324.315 166.076 324.695 165.628 324.999 165.164C325.303 164.7 325.455 164.244 325.455 163.796C325.455 163.388 325.359 163.068 325.167 162.836C324.975 162.604 324.679 162.488 324.279 162.488C323.879 162.488 323.571 162.624 323.355 162.896C323.139 163.16 323.027 163.524 323.019 163.988H321.387C321.419 163.028 321.703 162.3 322.239 161.804C322.783 161.308 323.471 161.06 324.303 161.06C325.215 161.06 325.915 161.304 326.403 161.792C326.891 162.272 327.135 162.908 327.135 163.7C327.135 164.324 326.967 164.92 326.631 165.488C326.295 166.056 325.911 166.552 325.479 166.976C325.047 167.392 324.483 167.896 323.787 168.488H327.327V169.88H321.399V168.632L322.023 168.104ZM329.273 168.104C330.041 167.464 330.653 166.932 331.109 166.508C331.565 166.076 331.945 165.628 332.249 165.164C332.553 164.7 332.705 164.244 332.705 163.796C332.705 163.388 332.609 163.068 332.417 162.836C332.225 162.604 331.929 162.488 331.529 162.488C331.129 162.488 330.821 162.624 330.605 162.896C330.389 163.16 330.277 163.524 330.269 163.988H328.637C328.669 163.028 328.953 162.3 329.489 161.804C330.033 161.308 330.721 161.06 331.553 161.06C332.465 161.06 333.165 161.304 333.653 161.792C334.141 162.272 334.385 162.908 334.385 163.7C334.385 164.324 334.217 164.92 333.881 165.488C333.545 166.056 333.161 166.552 332.729 166.976C332.297 167.392 331.733 167.896 331.037 168.488H334.577V169.88H328.649V168.632L329.273 168.104Z" fill="white"/>
<path d="M86.092 74.754L89.98 81H87.676L84.85 76.464L82.204 81H79.918L83.806 74.754L79.9 68.49H82.204L85.048 73.062L87.712 68.49H89.998L86.092 74.754ZM98.5148 74.754L102.403 81H100.099L97.2728 76.464L94.6268 81H92.3408L96.2288 74.754L92.3228 68.49H94.6268L97.4708 73.062L100.135 68.49H102.421L98.5148 74.754ZM110.938 74.754L114.826 81H112.522L109.696 76.464L107.05 81H104.764L108.652 74.754L104.746 68.49H107.05L109.894 73.062L112.558 68.49H114.844L110.938 74.754ZM123.36 74.754L127.248 81H124.944L122.118 76.464L119.472 81H117.186L121.074 74.754L117.168 68.49H119.472L122.316 73.062L124.98 68.49H127.266L123.36 74.754Z" fill="white"/>
<path d="M144.092 74.754L147.98 81H145.676L142.85 76.464L140.204 81H137.918L141.806 74.754L137.9 68.49H140.204L143.048 73.062L145.712 68.49H147.998L144.092 74.754ZM156.515 74.754L160.403 81H158.099L155.273 76.464L152.627 81H150.341L154.229 74.754L150.323 68.49H152.627L155.471 73.062L158.135 68.49H160.421L156.515 74.754ZM168.938 74.754L172.826 81H170.522L167.696 76.464L165.05 81H162.764L166.652 74.754L162.746 68.49H165.05L167.894 73.062L170.558 68.49H172.844L168.938 74.754ZM181.36 74.754L185.248 81H182.944L180.118 76.464L177.472 81H175.186L179.074 74.754L175.168 68.49H177.472L180.316 73.062L182.98 68.49H185.266L181.36 74.754Z" fill="white"/>
<path d="M198.294 74.142C197.046 73.518 196.422 72.534 196.422 71.19C196.422 70.542 196.584 69.948 196.908 69.408C197.232 68.868 197.718 68.442 198.366 68.13C199.014 67.806 199.806 67.644 200.742 67.644C201.666 67.644 202.452 67.806 203.1 68.13C203.76 68.442 204.252 68.868 204.576 69.408C204.9 69.948 205.062 70.542 205.062 71.19C205.062 71.862 204.888 72.456 204.54 72.972C204.204 73.476 203.754 73.866 203.19 74.142C203.874 74.394 204.414 74.808 204.81 75.384C205.206 75.948 205.404 76.614 205.404 77.382C205.404 78.162 205.206 78.852 204.81 79.452C204.414 80.052 203.862 80.514 203.154 80.838C202.446 81.162 201.642 81.324 200.742 81.324C199.842 81.324 199.038 81.162 198.33 80.838C197.634 80.514 197.088 80.052 196.692 79.452C196.296 78.852 196.098 78.162 196.098 77.382C196.098 76.602 196.296 75.93 196.692 75.366C197.088 74.802 197.622 74.394 198.294 74.142ZM203.1 71.442C203.1 70.77 202.89 70.254 202.47 69.894C202.05 69.534 201.474 69.354 200.742 69.354C200.022 69.354 199.452 69.534 199.032 69.894C198.612 70.254 198.402 70.776 198.402 71.46C198.402 72.06 198.618 72.552 199.05 72.936C199.494 73.308 200.058 73.494 200.742 73.494C201.426 73.494 201.99 73.302 202.434 72.918C202.878 72.534 203.1 72.042 203.1 71.442ZM200.742 75.042C199.95 75.042 199.302 75.24 198.798 75.636C198.306 76.02 198.06 76.578 198.06 77.31C198.06 77.994 198.3 78.552 198.78 78.984C199.26 79.404 199.914 79.614 200.742 79.614C201.558 79.614 202.2 79.398 202.668 78.966C203.148 78.534 203.388 77.982 203.388 77.31C203.388 76.59 203.142 76.032 202.65 75.636C202.17 75.24 201.534 75.042 200.742 75.042ZM216.415 69.462L211.411 81H209.341L214.399 69.678H207.739V67.932H216.415V69.462ZM221.267 77.436C221.387 78.036 221.645 78.492 222.041 78.804C222.437 79.116 222.971 79.272 223.643 79.272C224.495 79.272 225.119 78.936 225.515 78.264C225.911 77.592 226.109 76.446 226.109 74.826C225.821 75.234 225.413 75.552 224.885 75.78C224.369 75.996 223.805 76.104 223.193 76.104C222.413 76.104 221.705 75.948 221.069 75.636C220.433 75.312 219.929 74.838 219.557 74.214C219.197 73.578 219.017 72.81 219.017 71.91C219.017 70.59 219.401 69.54 220.169 68.76C220.949 67.968 222.017 67.572 223.373 67.572C225.005 67.572 226.163 68.118 226.847 69.21C227.543 70.29 227.891 71.952 227.891 74.196C227.891 75.744 227.759 77.01 227.495 77.994C227.243 78.978 226.799 79.722 226.163 80.226C225.527 80.73 224.645 80.982 223.517 80.982C222.233 80.982 221.243 80.646 220.547 79.974C219.851 79.302 219.461 78.456 219.377 77.436H221.267ZM223.553 74.376C224.273 74.376 224.837 74.154 225.245 73.71C225.665 73.254 225.875 72.654 225.875 71.91C225.875 71.082 225.653 70.44 225.209 69.984C224.777 69.516 224.183 69.282 223.427 69.282C222.671 69.282 222.071 69.522 221.627 70.002C221.195 70.47 220.979 71.088 220.979 71.856C220.979 72.588 221.189 73.194 221.609 73.674C222.041 74.142 222.689 74.376 223.553 74.376ZM230.677 74.268C230.677 72.192 231.025 70.572 231.721 69.408C232.429 68.232 233.641 67.644 235.357 67.644C237.073 67.644 238.279 68.232 238.975 69.408C239.683 70.572 240.037 72.192 240.037 74.268C240.037 76.368 239.683 78.012 238.975 79.2C238.279 80.376 237.073 80.964 235.357 80.964C233.641 80.964 232.429 80.376 231.721 79.2C231.025 78.012 230.677 76.368 230.677 74.268ZM238.021 74.268C238.021 73.296 237.955 72.474 237.823 71.802C237.703 71.13 237.451 70.584 237.067 70.164C236.683 69.732 236.113 69.516 235.357 69.516C234.601 69.516 234.031 69.732 233.647 70.164C233.263 70.584 233.005 71.13 232.873 71.802C232.753 72.474 232.693 73.296 232.693 74.268C232.693 75.276 232.753 76.122 232.873 76.806C232.993 77.49 233.245 78.042 233.629 78.462C234.025 78.882 234.601 79.092 235.357 79.092C236.113 79.092 236.683 78.882 237.067 78.462C237.463 78.042 237.721 77.49 237.841 76.806C237.961 76.122 238.021 75.276 238.021 74.268Z" fill="white"/>
<circle cx="64" cy="33" r="17" fill="#FFC107"/>
<circle opacity="0.8" cx="38" cy="33" r="17" fill="#F14336"/>
<circle cx="369.5" cy="12.5" r="1.5" fill="white"/>
<circle cx="369.5" cy="16.5" r="1.5" fill="white"/>
<circle cx="369.5" cy="20.5" r="1.5" fill="white"/>
<defs>
<linearGradient id="paint0_linear_146_984" x1="351.5" y1="-6.06759e-06" x2="87" y2="189" gradientUnits="userSpaceOnUse">
<stop stop-color="#AEDC81"/>
<stop offset="1" stop-color="#6CC51D"/>
</linearGradient>
</defs>
</svg>
