<svg width="36" height="36" viewBox="0 0 36 36" fill="none" xmlns="http://www.w3.org/2000/svg">
<path d="M32.906 18.8404H31.9517C30.6575 12.5667 25.2382 7.78612 18.6711 7.47956C18.6359 7.46657 18.5998 7.45512 18.5626 7.44571C17.2732 7.12118 16.3727 5.85918 16.3727 4.37678C16.3727 3.12497 17.3886 2.10648 18.6373 2.10648C19.5202 2.10648 20.2384 2.82676 20.2384 3.71204C20.2384 4.29371 20.71 4.76529 21.2916 4.76529C21.8733 4.76529 22.3449 4.29371 22.3449 3.71204C22.3449 1.66524 20.6817 0 18.6373 0C16.2271 0 14.2662 1.96338 14.2662 4.37678C14.2662 5.63196 14.6755 6.79523 15.3735 7.70727C9.70718 8.76943 5.21145 13.2017 4.04825 18.8404H3.09394C1.40153 18.8404 0.0246582 20.2163 0.0246582 21.9076C0.0246582 23.5989 1.40153 24.9748 3.09394 24.9748H4.12556C5.59553 31.2852 11.2582 36 18 36C24.7417 36 30.4044 31.2851 31.8744 24.9748H32.906C34.5984 24.9748 35.9753 23.5989 35.9753 21.9076C35.9753 20.2163 34.5984 18.8404 32.906 18.8404ZM14.295 22.7203C13.7133 22.7186 13.243 22.2458 13.2447 21.6641C13.2452 21.5 13.195 20.6811 12.1576 20.6781C12.1558 20.6781 12.1539 20.6781 12.152 20.6781C11.1201 20.6781 11.0654 21.4941 11.065 21.6579C11.0634 22.2395 10.5911 22.7116 10.0088 22.7081C9.42708 22.7064 8.95692 22.2335 8.95853 21.6518C8.9612 20.7164 9.33412 19.8893 10.0086 19.323C10.586 18.8383 11.3473 18.5716 12.1532 18.5716H12.1636C12.9735 18.5739 13.7373 18.8452 14.3143 19.3353C14.9855 19.9054 15.3537 20.7345 15.3511 21.67C15.3495 22.2506 14.8782 22.7202 14.2979 22.7202C14.297 22.7203 14.296 22.7203 14.295 22.7203ZM18 31.8044C16.1403 31.8044 14.6273 30.2925 14.6273 28.4339C14.6273 27.8523 15.0989 27.3807 15.6805 27.3807C16.2622 27.3807 16.7338 27.8523 16.7338 28.4339C16.7338 29.1309 17.3017 29.698 18 29.698C18.6982 29.698 19.2662 29.1309 19.2662 28.4339C19.2662 27.8523 19.7378 27.3807 20.3194 27.3807C20.9011 27.3807 21.3727 27.8523 21.3727 28.4339C21.3726 30.2925 19.8597 31.8044 18 31.8044ZM25.9881 22.7203C25.9871 22.7203 25.9861 22.7203 25.985 22.7203C25.4034 22.7186 24.9332 22.2457 24.9348 21.6641C24.9359 21.2817 24.7949 21.0136 24.5037 20.8444C24.124 20.6238 23.5719 20.6222 23.191 20.8407C22.8988 21.0083 22.7563 21.2755 22.7552 21.6579C22.7535 22.2386 22.2822 22.7081 21.702 22.7081C21.7009 22.7081 21.6999 22.7081 21.699 22.7081C21.1173 22.7064 20.6471 22.2336 20.6487 21.6518C20.6519 20.5179 21.1965 19.5562 22.1429 19.0134C23.1831 18.4168 24.5253 18.4206 25.5621 19.0231C26.5054 19.5713 27.0445 20.536 27.0413 21.67C27.0397 22.2507 26.5684 22.7203 25.9881 22.7203Z" fill="#1BADFF"/>
</svg>
