<svg width="25" height="26" viewBox="0 0 25 26" fill="none" xmlns="http://www.w3.org/2000/svg">
<path d="M17.978 0.761719C17.978 0.341047 17.6369 0 17.2163 0H14.1694C13.7487 0 13.4077 0.341047 13.4077 0.761719V2.08203H17.978V0.761719Z" fill="#0CD4DC"/>
<path d="M4.54851 22.0029C3.87779 21.6072 3.25876 21.1276 2.70865 20.5775C2.66848 20.5374 2.62928 20.4964 2.58998 20.4556C1.68297 20.9074 0.863363 21.5388 0.184976 22.3251C-0.0616179 22.611 -0.0616179 23.0344 0.184976 23.3203C1.65408 25.0232 3.78547 25.9999 6.03254 25.9999C6.7028 25.9999 7.3625 25.9124 7.99767 25.7452C7.20025 24.9039 6.54909 23.9405 6.0656 22.8979L4.54851 22.0029Z" fill="#0CD4DC"/>
<path d="M5.32266 20.6909C5.16291 19.9578 5.07952 19.2035 5.07952 18.4393C5.07952 16.7098 5.5006 15.0418 6.26877 13.5588C5.03875 12.9447 3.65298 12.6637 2.24948 12.7671C1.87294 12.7948 1.57354 13.0942 1.54581 13.4708C1.38052 15.7138 2.19703 17.9115 3.78592 19.5004C4.25072 19.9652 4.76778 20.3635 5.32266 20.6909Z" fill="#0CD4DC"/>
<path d="M20.0645 10.468C18.8432 9.79692 18.1426 8.61275 18.1426 7.21921V5.1256C18.5337 5.0934 18.8412 4.76642 18.8412 4.36708C18.8412 3.96702 18.5325 3.63964 18.1405 3.60846C18.1403 3.60643 13.2451 3.60643 13.245 3.60846C12.853 3.63964 12.5443 3.96702 12.5443 4.36708C12.5443 4.76642 12.8518 5.0934 13.2429 5.1256V7.21921C13.2429 8.6127 12.5424 9.79686 11.321 10.468C9.32182 11.5666 7.84297 13.3519 7.11288 15.4374H24.2726C23.5425 13.3518 22.0637 11.5665 20.0645 10.468Z" fill="#0CD4DC"/>
<path d="M24.661 16.9609H6.72455C6.64477 17.4451 6.60298 17.9391 6.60298 18.4393C6.60298 21.3819 8.03806 24.1558 10.4418 25.8597C10.5706 25.9509 10.7245 26 10.8823 26H20.5032C20.6611 26 20.815 25.951 20.9437 25.8597C23.3475 24.1558 24.7826 21.3819 24.7826 18.4393C24.7827 17.9391 24.7408 17.4451 24.661 16.9609Z" fill="#0CD4DC"/>
</svg>
