<svg width="21" height="27" viewBox="0 0 21 27" fill="none" xmlns="http://www.w3.org/2000/svg">
<path d="M11.0714 8.25205C11.5354 7.47707 12.2698 6.36792 13.1974 5.30365H13.1984C13.984 4.40038 15.5223 3.24108 15.5223 3.24108C15.7536 3.06634 15.7288 2.82297 15.4659 2.7005L13.6065 1.83155C13.3436 1.70855 12.9862 1.79829 12.812 2.03005C12.812 2.03005 11.4367 4.00286 9.81811 8.20243C4.81338 5.93873 0.0562401 9.10938 0.0562401 14.6229C0.0562401 20.3819 4.48712 29.13 10.4791 26.4894C16.7899 29.2203 20.9051 20.3825 20.9051 14.6229C20.9051 9.06187 16.6289 5.80147 11.0714 8.25205Z" fill="#F8644A"/>
<path d="M9.95056 6.38691C10.2399 6.36263 10.4954 6.10659 10.5186 5.81782C10.5186 5.81782 10.7044 3.56573 9.13492 1.99466C7.56064 0.423055 5.31274 0.610465 5.31274 0.610465C5.02343 0.634749 4.76792 0.890788 4.74416 1.17956C4.74416 1.17956 4.55516 3.4327 6.1268 5.0043C7.69738 6.57432 9.95056 6.38691 9.95056 6.38691Z" fill="#F8644A"/>
</svg>
