<svg width="25" height="29" viewBox="0 0 25 29" fill="none" xmlns="http://www.w3.org/2000/svg">
<path d="M25.7708 1.83178C23.5433 0.546096 20.4725 0.491911 17.7584 1.69071C15.2471 2.80049 13.4368 5.24582 12.3667 7.0835C11.885 6.96605 11.3696 7.19507 11.1459 7.66119C10.9319 8.1069 11.0569 8.62401 11.413 8.93297C11.3154 9.15021 11.2559 9.29611 11.2334 9.35293L6.03583 20.7692C5.51177 20.5278 4.88741 20.7429 4.62888 21.2637C4.36553 21.7942 4.5817 22.4379 5.11217 22.7018L5.14756 22.7195L3.97832 25.2893H1.07276C0.480596 25.2893 0 25.7699 0 26.362C0 26.9542 0.480596 27.4348 1.07276 27.4348H6.43655C7.02872 27.4348 7.50931 26.9542 7.50931 26.362C7.50931 25.7699 7.02872 25.2893 6.43655 25.2893H6.3357L7.07965 23.6549C7.17781 23.6834 7.27704 23.7027 7.37626 23.7027C7.77048 23.7027 8.15028 23.4844 8.33802 23.1073C8.5837 22.6128 8.4088 22.0243 7.95502 21.7325L13.3409 9.90274C13.4862 9.96977 13.638 10.0031 13.7887 10.0031C14.1883 10.0031 14.5718 9.77889 14.7563 9.39427C15.002 8.8831 14.8024 8.27697 14.3165 8.00128C15.2342 6.45488 16.7034 4.50299 18.6263 3.65337C20.6935 2.73991 23.0772 2.75388 24.6986 3.68983C25.891 4.37802 26.576 5.47277 26.7358 6.94456C27.0351 9.70104 26.7813 11.5494 25.9838 12.4392C25.9103 12.5213 25.8293 12.5916 25.7467 12.658V15.0594C26.4075 14.8363 27.0421 14.4721 27.5806 13.8719C28.8207 12.4907 29.2417 10.1489 28.869 6.71335C28.6384 4.58449 27.5377 2.85091 25.7708 1.83178Z" fill="#FF7EB6"/>
<path d="M22.7157 19.9252C23.4157 19.9252 24.0776 20.0845 24.6735 20.3624V15.3092V13.1326V11.8796C24.6735 11.2869 24.7298 11.3432 24.1371 11.3432H22.0362C21.4435 11.3432 15.4655 11.8351 13.8864 19.641L12.8731 26.0936C12.8731 26.6862 13.3532 27.4345 13.9459 27.4345H19.0367C18.4241 26.6455 18.0556 25.6586 18.0556 24.5853C18.0556 22.0155 20.1465 19.9252 22.7157 19.9252Z" fill="#FF7EB6"/>
<path d="M25.2099 22.0128C25.0452 21.8535 24.866 21.7098 24.6735 21.5838C24.1098 21.2147 23.4377 20.998 22.7157 20.998C20.7375 20.998 19.1284 22.6072 19.1284 24.5854C19.1284 25.7471 19.6863 26.7791 20.5456 27.4346C20.8449 27.6631 21.1801 27.8449 21.5422 27.9709C21.9107 28.0991 22.3044 28.1721 22.7158 28.1721C23.1272 28.1721 23.5209 28.0991 23.8894 27.9709C24.2692 27.839 24.6205 27.6453 24.9305 27.4013C25.2223 27.1718 25.4793 26.8998 25.6879 26.5919C26.0763 26.0185 26.3037 25.3277 26.3037 24.5848C26.3037 23.8822 26.0977 23.2283 25.7475 22.6747C25.5933 22.4333 25.4142 22.2108 25.2099 22.0128ZM22.7157 22.7858C23.7091 22.7858 24.5147 23.5914 24.5147 24.5848C24.5147 25.5782 23.7091 26.3838 22.7157 26.3838C21.7223 26.3838 20.9167 25.5782 20.9167 24.5848C20.9167 23.5914 21.7218 22.7858 22.7157 22.7858Z" fill="#FF7EB6"/>
</svg>
