<svg width="24" height="26" viewBox="0 0 24 26" fill="none" xmlns="http://www.w3.org/2000/svg">
<path d="M4.00657 12.8811C4.00657 12.1537 4.22226 11.4542 4.62313 10.8619C4.49142 10.4371 4.42336 9.99193 4.42336 9.55073C4.42336 7.64817 5.62334 5.99072 7.36298 5.36846C7.51812 3.94993 8.42861 2.72925 9.71168 2.14497C9.05224 1.07842 8.01137 0.453065 7.05183 0.60852C6.35836 0.721137 5.78378 1.19192 5.44611 1.90251C4.83838 1.6234 4.20634 1.57702 3.6521 1.77179C3.05233 1.98289 2.58648 2.43424 2.30493 3.07682C1.93146 3.92784 1.93102 5.0231 2.29212 6.06447C1.80549 6.39835 1.44174 6.889 1.22915 7.5042C0.871585 8.53718 0.99092 9.78348 1.55622 10.9251C1.61809 11.0496 1.68572 11.1733 1.75953 11.2947C1.22871 11.6397 0.831364 12.1511 0.618329 12.7751C0.27977 13.7653 0.429602 14.932 1.02937 15.9752C1.30473 16.4544 1.66936 16.8885 2.09411 17.2453C1.95223 17.8389 2.05963 18.4912 2.40526 19.0816C2.88835 19.9053 3.75862 20.464 4.68855 20.558C5.93405 22.8969 7.43945 24.0902 9.59235 25.1241C7.03459 22.1029 5.61229 19.6006 5.53229 15.8272C4.59087 15.1555 4.00657 14.0519 4.00657 12.8811Z" fill="#28B446"/>
<path d="M23.6864 9.43125C23.7217 7.71152 22.7109 6.16448 21.1445 5.49584C20.916 4.02829 19.7324 2.88137 18.2615 2.68705C18.2482 2.54087 18.2204 2.39513 18.1784 2.25115C17.9189 1.36612 17.138 0.699691 16.2359 0.592815C15.6458 0.522596 15.088 0.670543 14.627 0.994261C14.216 0.722656 13.7373 0.576033 13.2467 0.576033C11.9831 0.576033 10.933 1.50877 10.75 2.72149C9.30513 3.01297 8.22183 4.29945 8.22183 5.80454C8.22183 5.88536 8.22537 5.96618 8.23156 6.04833C6.55644 6.34952 5.30563 7.80382 5.30563 9.55137C5.30563 10.0566 5.4148 10.5574 5.6243 11.018C5.15359 11.5211 4.88928 12.1831 4.88928 12.8817C4.88928 13.9258 5.48949 14.8726 6.41191 15.3284C6.37125 19.3309 7.83024 21.7608 10.6766 25.0351L10.837 25.2175L10.8662 25.2506C11.2976 25.7342 11.9186 26 12.6156 26C12.7362 26 12.8551 25.9899 12.9723 25.9749L12.8211 25.6816C11.8713 23.4244 11.2883 21.4203 10.963 19.6387C9.73739 19.2616 9.20745 18.2829 9.18403 18.2379C9.07 18.0224 9.15353 17.7547 9.36922 17.6412C9.58358 17.5277 9.8501 17.6099 9.96545 17.8241C9.98181 17.8545 10.239 18.3068 10.8017 18.615C10.6479 17.4593 10.6032 16.4038 10.6479 15.4525C10.6426 15.4044 10.6448 15.3571 10.6558 15.3085C10.7327 13.9487 10.9811 12.7978 11.3091 11.8333C9.82004 10.9461 9.63618 9.29434 9.76435 8.49277C9.8028 8.25208 10.03 8.08559 10.2704 8.12622C10.5113 8.16464 10.6753 8.39032 10.6377 8.63056C10.6267 8.70167 10.4282 10.1666 11.6339 10.9907C11.694 10.8515 11.7546 10.7133 11.8174 10.5839C12.9798 8.18672 14.6412 6.99387 15.2843 6.60037C15.2829 5.71578 15.8633 4.94733 15.8907 4.91156C16.0387 4.71768 16.3172 4.68147 16.5099 4.82897C16.7035 4.97692 16.7406 5.25383 16.593 5.44726C16.4944 5.57799 16.3008 5.90347 16.2142 6.26164C17.2321 6.14637 18.2257 6.72049 18.2761 6.75053C18.4869 6.87462 18.5563 7.14535 18.4325 7.35512C18.3499 7.49468 18.2022 7.57241 18.0515 7.57241C17.9751 7.57241 17.8982 7.55298 17.8279 7.51146C17.5198 7.33172 16.5819 6.93469 15.9393 7.24206C15.8275 7.29904 15.0752 7.70357 14.2191 8.59612C15.9724 8.46848 17.1919 8.98873 17.2533 9.01523C17.4765 9.11371 17.5782 9.37428 17.4805 9.5973C17.4076 9.76247 17.2454 9.8614 17.0752 9.8614C17.0164 9.8614 16.9563 9.84992 16.8988 9.8243C16.8657 9.81017 15.3705 9.191 13.3886 9.60304C12.9917 10.1608 12.6098 10.8295 12.2934 11.6262C12.2925 11.6845 12.2806 11.7436 12.2549 11.8002C12.2381 11.8377 12.2156 11.8704 12.1908 11.9004C11.9394 12.5889 11.7365 13.3631 11.6145 14.2376C12.6138 13.6113 13.8744 13.5839 13.9464 13.5831H13.9517C14.193 13.5831 14.3897 13.7765 14.3932 14.0185C14.3968 14.2623 14.2014 14.4623 13.9579 14.4663C13.9393 14.4668 12.1206 14.5092 11.5018 15.5633C11.4585 16.6405 11.5332 17.8431 11.763 19.1812C11.7652 19.1914 11.7665 19.2015 11.7679 19.2121C12.0772 20.9959 12.6589 23.0146 13.6229 25.3062L13.8332 25.7117C14.1577 25.5483 14.437 25.3221 14.6363 25.0439C14.9691 24.5793 15.0478 24.0158 14.8569 23.4571C14.0578 21.1142 14.0825 19.3265 14.9302 18.1429C16.029 16.6082 18.3176 16.379 19.5834 16.379C20.2354 16.379 20.6831 16.4391 20.6875 16.44L21.1419 16.5018L21.1874 16.046C21.1936 15.986 21.324 14.563 20.493 13.5963C20.4449 13.5402 20.394 13.4872 20.3419 13.4364C20.5766 13.3839 20.8086 13.3092 21.0367 13.213C22.6119 12.5492 23.6523 11.0644 23.6864 9.43125Z" fill="#28B446"/>
</svg>
