<svg width="22" height="22" viewBox="0 0 22 22" fill="none" xmlns="http://www.w3.org/2000/svg">
<path d="M4.87567 13.2951L4.10988 16.1539L1.31093 16.2131C0.474461 14.6616 0 12.8865 0 11.0002C0 9.17614 0.44361 7.45601 1.22994 5.94141H1.23054L3.72238 6.39825L4.81396 8.87514C4.5855 9.5412 4.46097 10.2562 4.46097 11.0002C4.46106 11.8077 4.60733 12.5813 4.87567 13.2951Z" fill="#FBBB00"/>
<path d="M21.8078 8.94482C21.9341 9.61024 22 10.2974 22 10.9998C22 11.7873 21.9172 12.5555 21.7595 13.2965C21.224 15.818 19.8248 18.0198 17.8865 19.578L17.8859 19.5774L14.7473 19.4172L14.3031 16.6442C15.5892 15.89 16.5944 14.7096 17.1238 13.2965H11.2418V8.94482H17.2096H21.8078Z" fill="#518EF8"/>
<path d="M17.8859 19.5776L17.8865 19.5782C16.0014 21.0934 13.6067 22 11 22C6.81091 22 3.16884 19.6586 1.31091 16.2129L4.87564 13.2949C5.80459 15.7741 8.19619 17.539 11 17.539C12.2051 17.539 13.3342 17.2132 14.303 16.6445L17.8859 19.5776Z" fill="#28B446"/>
<path d="M18.0213 2.53241L14.4578 5.44981C13.4551 4.82307 12.2699 4.46102 11 4.46102C8.13278 4.46102 5.69646 6.30683 4.81405 8.87494L1.23058 5.94121H1.22998C3.06071 2.41154 6.74872 0 11 0C13.6691 0 16.1163 0.950727 18.0213 2.53241Z" fill="#F14336"/>
</svg>
