<svg width="32" height="32" viewBox="0 0 32 32" fill="none" xmlns="http://www.w3.org/2000/svg">
<path d="M15.9944 32.0004C15.8891 32.0004 15.7824 31.9751 15.6864 31.9244L0.366655 23.926C0.146697 23.8113 0.00805664 23.5834 0.00805664 23.3354V8.33824C0.00805664 8.10762 0.128034 7.89299 0.323997 7.77168C0.51996 7.65037 0.76658 7.63971 0.971874 7.74235L16.2916 15.4076C16.5169 15.5209 16.6596 15.7515 16.6596 16.0035V31.3339C16.6596 31.5672 16.5383 31.7831 16.3383 31.9044C16.2343 31.9684 16.1143 32.0004 15.9944 32.0004ZM1.34114 22.9315L15.3278 30.2341V16.4154L1.34114 9.4167V22.9315Z" fill="#28B446"/>
<path d="M16.0154 32C15.8954 32 15.7755 31.968 15.6701 31.904C15.4715 31.7827 15.3489 31.5667 15.3489 31.3334V16.003C15.3489 15.751 15.4915 15.5204 15.7168 15.4071L31.0366 7.74188C31.2405 7.6379 31.4885 7.64856 31.6845 7.77121C31.8817 7.89252 32.0017 8.10714 32.0017 8.33777V23.3349C32.0017 23.5829 31.8631 23.8108 31.6431 23.9255L16.3234 31.924C16.2274 31.9746 16.1207 32 16.0154 32ZM16.682 16.4149V30.2336L30.6686 22.931V9.41623L16.682 16.4149ZM31.3352 23.3349H31.3485H31.3352Z" fill="#28B446"/>
<path d="M0.674518 9.00447C0.429231 9.00447 0.194609 8.86983 0.0772975 8.63654C-0.0880046 8.30727 0.0466366 7.90734 0.375908 7.74204L15.717 0.0768227C15.905 -0.016493 16.1263 -0.016493 16.3129 0.0768227L31.6327 7.74204C31.9619 7.90734 32.0952 8.30727 31.9313 8.63654C31.766 8.96581 31.3674 9.09778 31.0368 8.93515L16.0156 1.4179L0.973128 8.93381C0.877146 8.9818 0.775832 9.00447 0.674518 9.00447Z" fill="#28B446"/>
<path d="M24.0037 20.0023C23.6358 20.0023 23.3372 19.7037 23.3372 19.3358V12.4158L8.38535 4.93452C8.05607 4.77055 7.92277 4.36929 8.08807 4.04002C8.25337 3.71075 8.65329 3.57878 8.98257 3.74141L24.3023 11.4066C24.5276 11.5213 24.6703 11.7519 24.6703 12.0038V19.3358C24.6703 19.7037 24.3717 20.0023 24.0037 20.0023Z" fill="#28B446"/>
</svg>
