<svg width="42" height="30" viewBox="0 0 42 30" fill="none" xmlns="http://www.w3.org/2000/svg">
<path d="M41.865 10.5294C41.865 10.5294 37.931 5.27413 37.9286 5.27115C37.9276 5.26975 37.8418 5.11743 37.5775 5.03334L21.1841 0.404386C21.0636 0.370413 20.9363 0.370413 20.8158 0.404386L4.42241 5.03334C4.42241 5.03334 4.1986 5.09792 4.0641 5.27945C4.01025 5.35216 0.13506 10.5294 0.13506 10.5294C0.00513989 10.7032 -0.0338734 10.9287 0.0303398 11.136C0.0946464 11.3433 0.254339 11.5073 0.459766 11.577L3.92905 12.7544V22.1693C3.92905 22.4435 4.09434 22.6906 4.34784 22.7953L20.7413 29.5695C20.7901 29.5897 20.8518 29.6209 21 29.6209C21.1481 29.6209 21.2586 29.5695 21.2586 29.5695L37.6522 22.7953C37.9057 22.6906 38.0709 22.4434 38.0709 22.1693V12.7542L41.5402 11.5768C41.7456 11.5071 41.9053 11.343 41.9696 11.1358C42.0338 10.9287 41.9948 10.7032 41.865 10.5294ZM1.77912 10.5939L4.872 6.46115L6.12294 6.80573L13.1632 8.74501L19.8211 10.5792L15.9163 15.3919L1.77912 10.5939ZM20.3226 27.9304L5.28387 21.7162V13.2141L15.9276 16.8268C15.9989 16.8512 16.0723 16.8627 16.1452 16.8627C16.3454 16.8627 16.5401 16.7737 16.6712 16.612L20.3227 12.1115L20.3226 27.9304ZM21 9.49895L7.12786 5.67733L21 1.76014L34.8721 5.67733L21 9.49895ZM36.7161 21.7162L21.6773 27.9304V12.1117L25.3288 16.6121C25.4599 16.7737 25.6546 16.8628 25.8548 16.8628C25.9277 16.8628 26.0011 16.8514 26.0725 16.827L36.7161 13.2143V21.7162ZM26.0837 15.3921L22.1789 10.5794L37.128 6.46115L40.221 10.5939L26.0837 15.3921Z" fill="#28B446"/>
</svg>
