<svg width="26" height="26" viewBox="0 0 26 26" fill="none" xmlns="http://www.w3.org/2000/svg">
<g clip-path="url(#clip0_86_880)">
<path d="M25.2565 3.55441C24.8741 3.17127 24.2535 3.17061 23.871 3.55279L12.1155 15.2773L7.87412 10.6707C7.50763 10.2729 6.888 10.2471 6.48952 10.6136C6.09134 10.9801 6.06585 11.6 6.43234 11.9982L11.3645 17.3546C11.5451 17.5509 11.7979 17.6649 12.0645 17.6705C12.0716 17.6708 12.0786 17.6708 12.0854 17.6708C12.3444 17.6708 12.5936 17.5679 12.7772 17.385L25.2546 4.94028C25.6381 4.55815 25.6387 3.93756 25.2565 3.55441Z" fill="#28B446"/>
<path d="M25.0201 12.0201C24.4788 12.0201 24.0402 12.4587 24.0402 13C24.0402 19.0878 19.0878 24.0402 13 24.0402C6.91255 24.0402 1.9598 19.0878 1.9598 13C1.9598 6.91255 6.91255 1.9598 13 1.9598C13.5412 1.9598 13.9799 1.52115 13.9799 0.979926C13.9799 0.438648 13.5412 0 13 0C5.83172 0 0 5.83172 0 13C0 20.168 5.83172 26 13 26C20.168 26 26 20.168 26 13C26 12.4588 25.5614 12.0201 25.0201 12.0201Z" fill="#28B446"/>
</g>
<defs>
<clipPath id="clip0_86_880">
<rect width="26" height="26" fill="white"/>
</clipPath>
</defs>
</svg>
