<svg width="40" height="39" viewBox="0 0 40 39" fill="none" xmlns="http://www.w3.org/2000/svg">
<path d="M13.926 32.0806L2.04235 26.5785C1.77697 26.4557 1.46421 26.4999 1.24347 26.6916C1.02266 26.8833 0.934793 27.1866 1.01909 27.4666L2.61046 32.7547L1.01902 38.0428C0.866462 38.5014 1.25068 39.0139 1.7304 38.9995C1.8361 38.9995 1.9426 38.977 2.04235 38.9308L13.926 33.4287C14.4921 33.178 14.4964 32.3327 13.926 32.0806ZM2.91766 36.8886L4.09726 32.9687C4.1393 32.8292 4.1393 32.6803 4.09726 32.5406L2.91766 28.6208L11.8462 32.7547L2.91766 36.8886Z" fill="#28B446"/>
<path d="M32.3308 0.97168C28.6449 0.97168 25.6462 3.97038 25.6462 7.65624C25.6901 11.2635 29.3953 15.1832 31.7709 17.9131C32.0507 18.249 32.6109 18.2498 32.8906 17.9131C35.2657 15.1846 38.9723 11.2623 39.0154 7.65632C39.0154 3.97038 36.0167 0.97168 32.3308 0.97168ZM32.3308 16.2996C30.3735 14.0787 27.1317 10.3882 27.1317 7.65624C27.1317 4.78946 29.464 2.45714 32.3308 2.45714C35.1976 2.45714 37.5299 4.78946 37.5299 7.65624C37.5299 10.3882 34.288 14.0787 32.3308 16.2996Z" fill="#28B446"/>
<path d="M32.331 4.68555C30.6929 4.68555 29.3601 6.0183 29.3601 7.65646C29.5095 11.5924 35.1532 11.5913 35.3019 7.65639C35.3019 6.0183 33.9692 4.68555 32.331 4.68555ZM32.331 9.142C31.5119 9.142 30.8456 8.47562 30.8456 7.65654C30.9203 5.68853 33.7421 5.68905 33.8165 7.65654C33.8165 8.47555 33.15 9.142 32.331 9.142Z" fill="#28B446"/>
<path d="M15.6194 18.1676H17.1048C18.0886 18.1313 18.0891 16.7185 17.1048 16.6821H15.6194C14.6356 16.7184 14.6351 18.1313 15.6194 18.1676Z" fill="#28B446"/>
<path d="M9.67733 18.168C9.6959 18.168 9.71447 18.1675 9.73311 18.1676H11.163C12.1466 18.1315 12.1474 16.7185 11.163 16.6821H9.73311C9.71016 16.6821 9.68721 16.6823 9.66441 16.6827C8.69017 16.7326 8.70317 18.1356 9.67733 18.168Z" fill="#28B446"/>
<path d="M17.9767 24.0352C17.9767 23.625 17.6442 23.2925 17.234 23.2925H15.7485C14.7648 23.3287 14.7642 24.7415 15.7485 24.7779H17.234C17.6442 24.7779 17.9767 24.4454 17.9767 24.0352Z" fill="#28B446"/>
<path d="M11.2921 23.2925H9.80661C8.82286 23.3287 8.82234 24.7415 9.80661 24.7779H11.2921C12.2759 24.7417 12.2763 23.3288 11.2921 23.2925Z" fill="#28B446"/>
<path d="M6.52579 22.2719C7.00077 22.2777 7.36938 21.8094 7.24683 21.3485C7.15377 20.979 7.14627 20.582 7.22455 20.209C7.39278 19.2403 6.00506 18.9493 5.77058 19.9049C5.64633 20.4967 5.65836 21.1232 5.80594 21.7096C5.89039 22.0469 6.19312 22.2719 6.52579 22.2719Z" fill="#28B446"/>
<path d="M27.5031 18.1676H28.9886C29.9723 18.1313 29.9729 16.7185 28.9886 16.6821H27.5031C26.5194 16.7184 26.5189 18.1313 27.5031 18.1676Z" fill="#28B446"/>
<path d="M29.679 31.5799C29.3155 31.7764 28.9252 31.9077 28.5188 31.9701C27.5495 32.1547 27.7711 33.5555 28.7444 33.4384C29.3196 33.3501 29.8718 33.1644 30.3856 32.8865C31.2339 32.3893 30.5601 31.142 29.679 31.5799Z" fill="#28B446"/>
<path d="M28.9099 24.9021C29.8623 25.1276 30.2419 23.7608 29.2981 23.4683C28.7622 23.3163 28.1893 23.2799 27.6321 23.2923C27.2219 23.2923 26.8894 23.6248 26.8894 24.035C26.8894 24.4452 27.2219 24.7777 27.6321 24.7777H27.971C28.2892 24.7778 28.605 24.8196 28.9099 24.9021Z" fill="#28B446"/>
<path d="M31.9438 26.4563C31.5504 26.5724 31.3256 26.9855 31.4417 27.3789C31.5388 27.7078 31.588 28.0496 31.588 28.395C31.427 29.7027 33.2027 29.71 33.0734 28.395C33.0734 27.9072 33.0038 27.4239 32.8664 26.9584C32.7503 26.565 32.3374 26.3403 31.9438 26.4563Z" fill="#28B446"/>
<path d="M18.2362 32.0117H16.7507C15.767 32.048 15.7664 33.4608 16.7507 33.4972H18.2362C19.2199 33.4609 19.2203 32.0481 18.2362 32.0117Z" fill="#28B446"/>
<path d="M24.1781 32.0117H22.6926C21.7088 32.048 21.7083 33.4608 22.6926 33.4972H24.1781C25.1618 33.4609 25.1623 32.0481 24.1781 32.0117Z" fill="#28B446"/>
<path d="M21.5613 18.1676H23.0467C24.0305 18.1313 24.031 16.7185 23.0467 16.6821H21.5613C20.5775 16.7184 20.577 18.1313 21.5613 18.1676Z" fill="#28B446"/>
<path d="M23.9186 24.0352C23.9186 23.625 23.5861 23.2925 23.1759 23.2925H21.6904C20.7067 23.3287 20.7061 24.7415 21.6904 24.7779H23.1759C23.5861 24.7779 23.9186 24.4454 23.9186 24.0352Z" fill="#28B446"/>
</svg>
