<svg width="36" height="36" viewBox="0 0 36 36" fill="none" xmlns="http://www.w3.org/2000/svg">
<path d="M35.9361 23.869C35.7368 23.3217 35.1318 23.0394 34.5844 23.2387L31.3463 24.4173C31.0955 23.7283 24.8765 6.64082 24.4932 5.58789C24.3976 5.32508 24.2015 5.11099 23.9479 4.9928C23.6944 4.87454 23.4043 4.86189 23.1415 4.95764L10.2388 9.65402C8.51527 4.93219 7.13565 1.15193 6.96896 0.693942C6.87327 0.431059 6.67711 0.216971 6.42359 0.0987826C6.17021 -0.0194055 5.88012 -0.032061 5.61718 0.0636285C5.27141 0.18948 1.13158 1.85747 0.66067 2.04724C0.120438 2.26491 -0.140961 2.87933 0.0767071 3.41958C0.294375 3.95983 0.90878 4.22117 1.44901 4.00356C2.66692 3.51281 4.31652 2.84945 5.35824 2.43337C7.00727 6.95306 13.4318 24.5519 15.3246 29.7369C13.8848 30.0328 12.7987 31.31 12.7987 32.8361C12.7987 34.5807 14.2179 36 15.9624 36C17.7069 36 19.1262 34.5807 19.1262 32.8361C19.1262 32.2636 18.9726 31.7267 18.7056 31.2629L35.3058 25.2208C35.8532 25.0215 36.1353 24.4163 35.9361 23.869ZM29.3643 25.1387L17.4715 29.4674C16.9346 27.9968 15.8523 25.032 14.5783 21.542L26.4788 17.2105L29.3643 25.1387ZM22.872 7.30024L25.7575 15.2284L13.8551 19.5607C12.9123 16.9779 11.9063 14.2219 10.9621 11.6352L22.872 7.30024ZM15.9624 33.8908C15.3809 33.8908 14.9079 33.4176 14.9079 32.8361C14.9079 32.2546 15.3809 31.7815 15.9624 31.7815C16.5439 31.7815 17.017 32.2546 17.017 32.8361C17.017 33.4176 16.5439 33.8908 15.9624 33.8908Z" fill="#868889"/>
</svg>
