<svg width="44" height="26" viewBox="0 0 44 26" fill="none" xmlns="http://www.w3.org/2000/svg">
<path d="M11.9166 21.9998H8.24992C7.74392 21.9998 7.33325 21.5892 7.33325 21.0832C7.33325 20.5772 7.74392 20.1665 8.24992 20.1665H11.9166C12.4226 20.1665 12.8333 20.5772 12.8333 21.0832C12.8333 21.5892 12.4226 21.9998 11.9166 21.9998Z" fill="#868889"/>
<path d="M41.7084 22H39.4167C38.9107 22 38.5 21.5893 38.5 21.0833C38.5 20.5773 38.9107 20.1667 39.4167 20.1667H40.9475L42.1832 13.5813C42.1667 10.2117 39.2884 7.33333 35.75 7.33333H29.7312L26.8144 20.1667H32.0834C32.5894 20.1667 33 20.5773 33 21.0833C33 21.5893 32.5894 22 32.0834 22H25.6667C25.388 22 25.124 21.8735 24.9499 21.6553C24.7757 21.439 24.7097 21.153 24.772 20.8817L28.105 6.215C28.2004 5.79517 28.5707 5.5 28.9997 5.5H35.75C40.2985 5.5 44 9.2015 44 13.75L42.6085 21.252C42.5279 21.6865 42.1502 22 41.7084 22Z" fill="#868889"/>
<path d="M35.7501 25.6667C33.2237 25.6667 31.1667 23.6115 31.1667 21.0833C31.1667 18.5552 33.2237 16.5 35.7501 16.5C38.2764 16.5 40.3334 18.5552 40.3334 21.0833C40.3334 23.6115 38.2764 25.6667 35.7501 25.6667ZM35.7501 18.3333C34.2339 18.3333 33.0001 19.5672 33.0001 21.0833C33.0001 22.5995 34.2339 23.8333 35.7501 23.8333C37.2663 23.8333 38.5001 22.5995 38.5001 21.0833C38.5001 19.5672 37.2663 18.3333 35.7501 18.3333Z" fill="#868889"/>
<path d="M15.5833 25.6667C13.057 25.6667 11 23.6115 11 21.0833C11 18.5552 13.057 16.5 15.5833 16.5C18.1097 16.5 20.1667 18.5552 20.1667 21.0833C20.1667 23.6115 18.1097 25.6667 15.5833 25.6667ZM15.5833 18.3333C14.0672 18.3333 12.8333 19.5672 12.8333 21.0833C12.8333 22.5995 14.0672 23.8333 15.5833 23.8333C17.0995 23.8333 18.3333 22.5995 18.3333 21.0833C18.3333 19.5672 17.0995 18.3333 15.5833 18.3333Z" fill="#868889"/>
<path d="M11.9168 5.49984H4.58342C4.07741 5.49984 3.66675 5.08917 3.66675 4.58317C3.66675 4.07717 4.07741 3.6665 4.58342 3.6665H11.9168C12.4228 3.6665 12.8334 4.07717 12.8334 4.58317C12.8334 5.08917 12.4228 5.49984 11.9168 5.49984Z" fill="#868889"/>
<path d="M11.9166 10.9998H2.74992C2.24392 10.9998 1.83325 10.5892 1.83325 10.0832C1.83325 9.57717 2.24392 9.1665 2.74992 9.1665H11.9166C12.4226 9.1665 12.8333 9.57717 12.8333 10.0832C12.8333 10.5892 12.4226 10.9998 11.9166 10.9998Z" fill="#868889"/>
<path d="M11.9167 16.4998H0.916667C0.410667 16.4998 0 16.0892 0 15.5832C0 15.0772 0.410667 14.6665 0.916667 14.6665H11.9167C12.4227 14.6665 12.8333 15.0772 12.8333 15.5832C12.8333 16.0892 12.4227 16.4998 11.9167 16.4998Z" fill="#868889"/>
<path d="M25.6666 22H19.2499C18.7439 22 18.3333 21.5893 18.3333 21.0833C18.3333 20.5773 18.7439 20.1667 19.2499 20.1667H24.9351L29.1004 1.83333H8.24992C7.74392 1.83333 7.33325 1.42267 7.33325 0.916667C7.33325 0.410667 7.74392 0 8.24992 0H30.2499C30.5286 0 30.7926 0.1265 30.9668 0.344667C31.1409 0.561001 31.2069 0.847001 31.1446 1.11833L26.5613 21.285C26.4659 21.7048 26.0938 22 25.6666 22Z" fill="#868889"/>
</svg>
