<svg width="28" height="28" viewBox="0 0 28 28" fill="none" xmlns="http://www.w3.org/2000/svg">
<g clip-path="url(#clip0_91_1092)">
<path d="M23.2671 6.43907C23.0964 6.33855 22.8864 6.33155 22.7095 6.42042C22.5328 6.5095 22.4133 6.68215 22.3921 6.87892C22.3711 7.07027 22.3385 7.26157 22.2976 7.46227C21.1555 12.6458 18.8618 15.1669 15.2836 15.1669H10.0336C9.7568 15.1674 9.51847 15.3624 9.46313 15.6336L7.71313 23.8364L7.40048 25.9247C7.22072 26.8744 7.84482 27.79 8.79441 27.9697C8.89913 27.9895 9.00539 27.9998 9.11198 28.0002H12.6236C13.4285 28.0027 14.1303 27.4534 14.3211 26.6714L15.7398 21.0003H18.7836C22.3758 21.0003 24.8584 18.1361 25.7742 12.9351C26.3788 10.4585 25.3786 7.86734 23.2671 6.43907Z" fill="#03A9F4"/>
<path d="M22.1667 2.07904C21.014 0.771517 19.3598 0.0156284 17.6167 4.24828e-05H7.95674C6.51108 -0.00772313 5.28028 1.04999 5.07045 2.48033L2.07095 22.4898C1.92729 23.4456 2.58556 24.3368 3.54133 24.4805C3.62807 24.4936 3.71573 24.5001 3.80345 24.5H8.28344C8.56027 24.4995 8.79859 24.3045 8.85394 24.0333L10.5048 16.3334H15.2881C19.4391 16.3334 22.182 13.4319 23.442 7.70003C23.4926 7.47154 23.5315 7.24065 23.5586 7.00818C23.8511 5.23986 23.3409 3.43315 22.1667 2.07904Z" fill="#283593"/>
</g>
<defs>
<clipPath id="clip0_91_1092">
<rect width="28" height="28" fill="white"/>
</clipPath>
</defs>
</svg>
