<svg width="33" height="12" viewBox="0 0 33 12" fill="none" xmlns="http://www.w3.org/2000/svg">
<path d="M11.715 0L9.90828 11.2433H12.7962L14.6018 0H11.715ZM20.4259 4.57989C19.4168 4.08153 18.7981 3.74518 18.7981 3.23546C18.8104 2.77202 19.3213 2.29723 20.462 2.29723C21.4002 2.27366 22.0898 2.49415 22.613 2.71354L22.8751 2.83051L23.2677 0.478126C22.6973 0.257633 21.7928 0.0146826 20.6757 0.0146826C17.8238 0.0146826 15.8157 1.49743 15.8032 3.61809C15.7797 5.18301 17.2409 6.05141 18.3345 6.57235C19.4517 7.10674 19.832 7.45322 19.832 7.92801C19.8196 8.65698 18.9286 8.99334 18.0973 8.99334C16.9453 8.99334 16.3265 8.8201 15.3872 8.41391L15.0069 8.24067L14.603 10.6853C15.2814 10.9869 16.529 11.2523 17.8239 11.2659C20.8547 11.2659 22.8268 9.8056 22.8516 7.54551C22.8615 6.30571 22.0909 5.35612 20.4259 4.57989ZM30.6713 0.034795H28.437C27.7485 0.034795 27.2253 0.232832 26.9272 0.939348L22.6375 11.2433H25.6683L26.503 9.01246H29.8938L30.3269 11.2523H33L30.6713 0.034795ZM27.3435 6.76114C27.402 6.76681 28.5068 3.11948 28.5068 3.11948L29.3866 6.76114C29.3866 6.76114 27.914 6.76114 27.3435 6.76114ZM7.49519 0L4.66579 7.63879L4.35757 6.13235C3.83441 4.39419 2.19422 2.50538 0.36377 1.56714L2.95466 11.2321H6.01022L10.5508 0.0012332H7.49519V0Z" fill="#2394BC"/>
</svg>
